HIERARCHY
ROOT Hips
{
	OFFSET -3.958830 18.904000 13.208200
	CHANNELS 6 Xposition Yposition Zposition Zrotation Yrotation Xrotation 
	JOINT LHipJoint
	{
		OFFSET 0.000000 0.000000 0.000000
		CHANNELS 3 Zrotation Yrotation Xrotation
		JOINT LeftUpLeg
		{
			OFFSET 1.800000 -1.400000 0.085000
			CHANNELS 3 Zrotation Yrotation Xrotation
			JOINT LeftLeg
			{
				OFFSET 2.215000 -6.000000 0.000000
				CHANNELS 3 Zrotation Yrotation Xrotation
				JOINT LeftFoot
				{
					OFFSET 2.500000 -6.900000 0.000000
					CHANNELS 3 Zrotation Yrotation Xrotation
					JOINT LeftToeBase
					{
						OFFSET 0.200000 -0.500000 1.950000
						CHANNELS 3 Zrotation Yrotation Xrotation
						End Site
						{
							OFFSET 0.000000 0.000000 0.000000
						}
					}
				}
			}
		}
	}
	JOINT RHipJoint
	{
		OFFSET 0.000000 0.000000 0.000000
		CHANNELS 3 Zrotation Yrotation Xrotation
		JOINT RightUpLeg
		{
			OFFSET -1.800000 -1.400000 0.085000
			CHANNELS 3 Zrotation Yrotation Xrotation
			JOINT RightLeg
			{
				OFFSET -2.215000 -6.000000 0.000000
				CHANNELS 3 Zrotation Yrotation Xrotation
				JOINT RightFoot
				{
					OFFSET -2.500000 -6.900000 0.000000
					CHANNELS 3 Zrotation Yrotation Xrotation
					JOINT RightToeBase
					{
						OFFSET -0.200000 -0.500000 1.950000
						CHANNELS 3 Zrotation Yrotation Xrotation
						End Site
						{
							OFFSET 0.000000 0.000000 0.000000
						}
					}
				}
			}
		}
	}
	JOINT LowerBack
	{
		OFFSET 0.000000 0.000000 0.000000
		CHANNELS 3 Zrotation Yrotation Xrotation
		JOINT Spine
		{
			OFFSET -0.087000 1.940000 -0.288900
			CHANNELS 3 Zrotation Yrotation Xrotation
			JOINT Spine1
			{
				OFFSET 0.000000 1.950000 0.060000
				CHANNELS 3 Zrotation Yrotation Xrotation
				JOINT Neck
				{
					OFFSET 0.000000 0.000000 0.000000
					CHANNELS 3 Zrotation Yrotation Xrotation
					JOINT Neck1
					{
						OFFSET 0.000000 1.600000 0.340000
						CHANNELS 3 Zrotation Yrotation Xrotation
						JOINT Head
						{
							OFFSET 0.000000 1.667000 -0.240000
							CHANNELS 3 Zrotation Yrotation Xrotation
							End Site
							{
								OFFSET 0.000000 0.000000 0.000000
							}
						}
					}
				}
				JOINT LeftShoulder
				{
					OFFSET 0.000000 0.000000 0.000000
					CHANNELS 3 Zrotation Yrotation Xrotation
					JOINT LeftArm
					{
						OFFSET 2.700000 1.550000 -0.730000
						CHANNELS 3 Zrotation Yrotation Xrotation
						JOINT LeftForeArm
						{
							OFFSET 5.450000 0.000000 0.000000
							CHANNELS 3 Zrotation Yrotation Xrotation
							JOINT LeftHand
							{
								OFFSET 3.450000 0.000000 0.000000
								CHANNELS 3 Zrotation Yrotation Xrotation
								JOINT LeftHandIndex1
								{
									OFFSET 0.750000 0.000000 0.000000
									CHANNELS 3 Zrotation Yrotation Xrotation
									End Site
									{
										OFFSET 0.000000 0.000000 0.000000
									}
								}
							}
						}
					}
				}
				JOINT RightShoulder
				{
					OFFSET 0.000000 0.000000 0.000000
					CHANNELS 3 Zrotation Yrotation Xrotation
					JOINT RightArm
					{
						OFFSET -2.700000 1.550000 -0.730000
						CHANNELS 3 Zrotation Yrotation Xrotation
						JOINT RightForeArm
						{
							OFFSET -5.450000 0.000000 0.000000
							CHANNELS 3 Zrotation Yrotation Xrotation
							JOINT RightHand
							{
								OFFSET -3.450000 0.000000 0.000000
								CHANNELS 3 Zrotation Yrotation Xrotation
								JOINT RightHandIndex1
								{
									OFFSET -0.750000 0.000000 0.000000
									CHANNELS 3 Zrotation Yrotation Xrotation
									End Site
									{
										OFFSET 0.000000 0.000000 0.000000
									}
								}
							}
						}
					}
				}
			}
		}
	}
}
MOTION
Frames: 14
Frame Time: 0.016667
-1.155410 17.587060 -1.985250 -1.500676 -4.441503 5.794104 -15.382222 8.840730 7.005791 37.172549 -4.093738 -36.466472 -52.717301 22.501680 21.926549 1.227814 11.420747 0.537966 0.177260 0.293210 -0.260220 18.771052 -8.475153 3.023128 -24.870983 0.216507 -35.509118 20.901329 -18.889699 36.790702 -0.910671 -7.951387 1.448430 0.149240 0.406970 0.101160 -4.212215 -0.105840 -10.157493 20.799394 -4.888845 18.162098 -13.198858 4.514717 12.361495 10.360055 1.548814 -15.212238 0.357590 -3.268327 46.862819 8.463760 -8.877210 -14.477330 5.950675 -32.945974 10.999056 -73.440178 -57.366880 25.982575 -1.642902 -20.826820 -1.958921 -3.380349 3.478541 0.376940 0.043650 0.037210 0.236730 -26.793771 32.387523 5.457502 -22.165339 30.183972 -6.218668 -128.007270 29.635160 -57.745105 2.318463 -1.255224 -0.132580 0.436460 0.204000 0.159070 
-1.151490 17.555890 -1.946150 -3.357918 -5.144518 7.453702 -15.306344 8.935559 6.698016 35.907699 -2.836524 -35.160507 -46.588554 18.875185 18.632798 0.922606 10.623958 0.770310 0.108250 0.202240 -0.314680 18.828086 -8.449096 3.231552 -24.329568 2.109473 -36.159490 22.768658 -18.344493 35.291852 -0.859259 -7.797598 1.519012 0.115000 0.484810 0.105400 -4.423150 0.007124 -9.982058 22.461533 -4.603048 15.798268 -14.416950 4.042478 11.737294 10.538669 0.638166 -14.506709 -1.316850 -2.201784 46.090376 7.788460 -8.774970 -12.538810 5.121591 -31.961152 10.318493 -73.050379 -51.856835 23.974879 -2.021338 -18.635089 -1.640269 -3.497505 3.383882 0.345350 0.095570 -0.019040 0.236770 -26.441792 31.847676 4.937077 -21.138699 31.121895 -5.788423 -128.673608 30.699187 -61.277267 2.277152 -1.246293 -0.166230 0.457950 0.247710 0.170190 
-1.158900 17.564430 -1.947890 -4.283728 -6.461222 7.568247 -15.320333 9.226703 6.497733 34.674162 -2.204500 -34.505853 -42.770199 17.695607 18.138623 0.777166 10.227748 0.880045 0.102880 0.191480 -0.308630 18.775896 -8.459927 3.279134 -22.637246 3.877035 -36.723976 21.347573 -17.310620 36.361386 -0.818218 -7.601854 1.591936 0.113200 0.492570 0.091620 -4.334018 -0.246611 -9.851587 21.669294 -4.767151 16.483293 -14.974057 3.483151 11.411286 10.773190 -1.100859 -13.916766 -4.582500 -0.352267 44.921235 7.780000 -8.075120 -12.673210 4.123804 -30.994521 9.635864 -69.346791 -46.749726 20.742134 -1.494260 -16.060966 -1.376287 -3.571200 3.252028 0.338070 0.091750 -0.031770 0.231350 -25.830681 32.252853 4.333386 -21.963732 30.394825 -6.468183 -128.999221 31.958410 -64.670195 2.259205 -1.281742 -0.175030 0.467500 0.246620 0.170080 
-1.171570 17.606700 -1.965930 -4.311428 -7.523013 6.604559 -15.353032 9.675399 6.285505 32.842384 -2.163725 -34.611538 -38.916915 18.025526 20.841278 0.616520 10.179711 0.868892 0.057710 0.101440 -0.292510 18.676573 -8.584609 3.238406 -20.591113 5.209811 -36.713209 18.006500 -15.893076 38.410588 -0.753285 -7.350440 1.668827 0.087510 0.500250 0.081870 -4.118911 -0.612685 -9.722227 19.264465 -5.217562 18.668627 -15.878013 2.807916 11.122492 11.191858 -2.473003 -13.623529 -7.044974 1.657878 44.285826 7.042850 -6.555540 -13.411380 2.104143 -30.149557 9.155946 -63.397483 -40.632836 16.386532 -1.181868 -13.885824 -1.213422 -3.681440 3.045687 0.402810 0.088490 -0.045120 0.184550 -24.517220 32.650012 3.974885 -22.478407 29.523706 -7.477866 -129.310009 33.103019 -67.936295 2.209274 -1.251982 -0.238660 0.496040 0.298170 0.118870 
-1.168790 17.671790 -1.976060 -4.662832 -9.276639 5.190109 -15.352837 10.155043 6.004671 30.830723 -1.899164 -34.125947 -34.718749 18.270307 23.858001 0.517779 10.053732 0.870276 0.073060 0.110730 -0.263920 18.597726 -8.795212 3.185929 -17.794165 6.716875 -36.258026 13.853411 -14.019759 40.822603 -0.721871 -7.039208 1.767782 0.084160 0.461200 0.087690 -3.977320 -0.850774 -9.539841 17.606542 -5.473018 21.505845 -16.973939 2.574306 11.043320 11.584288 -4.290182 -13.559763 -10.450776 3.613760 43.268511 6.812620 -5.296350 -15.247410 0.282323 -29.145728 9.015470 -58.299063 -35.463688 13.191490 0.364419 -10.752943 -1.112430 -3.715341 2.954981 0.444480 0.051420 -0.012320 0.167460 -23.344323 33.399418 3.476691 -23.576017 28.197021 -8.836644 -128.862717 34.246121 -70.044831 2.197762 -1.269702 -0.233400 0.487460 0.296840 0.103440 
-1.149650 17.752270 -1.983040 -5.284803 -10.270821 3.752740 -15.264755 10.593024 5.565927 28.064781 -1.943394 -33.883500 -28.875310 17.736443 27.418750 0.402769 9.704167 0.963312 0.096190 0.140430 -0.259410 18.595601 -9.119278 3.200693 -15.154592 7.845298 -35.532157 10.377012 -12.470444 43.028606 -0.729737 -6.885820 1.828007 0.082950 0.448430 0.109900 -4.056242 -0.801431 -9.278801 17.478110 -6.151573 23.937435 -19.263095 2.228777 11.225077 12.111556 -6.165867 -13.714542 -13.875516 5.436193 41.523831 6.533810 -4.375630 -16.054060 -0.946333 -28.159278 9.206146 -53.581773 -30.714770 10.411995 1.739861 -8.364071 -1.004681 -3.735931 2.930815 0.446750 0.034240 0.015540 0.184670 -23.072541 33.918706 2.954445 -24.475779 26.787565 -9.714486 -129.593972 34.337833 -72.134634 2.210676 -1.345806 -0.203160 0.472740 0.279350 0.121390 
-1.131430 17.832410 -1.976270 -6.222226 -10.996878 2.422228 -15.118681 10.948328 4.967368 24.944760 -1.863432 -33.410288 -22.238357 16.552717 30.903177 0.226749 9.202595 1.113161 0.074240 0.126340 -0.310220 18.662092 -9.451631 3.350021 -13.262483 9.056609 -34.918777 8.689654 -11.919982 45.689705 -0.788451 -7.113217 1.777104 0.074860 0.484280 0.109930 -4.323516 -0.494698 -8.980577 18.607419 -7.006637 25.706727 -21.904950 1.866303 11.659537 12.380431 -8.429368 -13.932453 -18.266152 7.253074 39.632869 6.857250 -4.370630 -16.611750 -1.353783 -26.689887 9.520558 -50.251388 -26.232098 8.082349 3.560737 -7.325874 -1.081115 -3.768597 2.891392 0.444670 0.038760 0.000180 0.186490 -23.064224 34.024490 2.443143 -24.940394 25.834021 -10.483974 -129.893318 34.483203 -73.706164 2.204711 -1.369124 -0.205440 0.498720 0.314060 0.144170 
-1.114910 17.895340 -1.968610 -7.348493 -11.739581 1.454541 -14.975485 11.170388 4.304646 21.859551 -1.577241 -33.186575 -15.363962 15.011059 34.398533 0.100001 8.650889 1.308840 0.022590 0.098970 -0.372370 18.764151 -9.650970 3.691163 -12.286949 10.815868 -35.294485 9.015759 -12.724448 49.739086 -0.963196 -7.843465 1.575584 0.050780 0.537420 0.092310 -4.658516 -0.063390 -8.768485 20.249980 -7.747132 27.209535 -24.724797 1.759154 11.797176 12.569037 -10.093381 -14.460203 -21.865317 8.898979 38.187686 7.175510 -4.321310 -16.610410 -1.366518 -25.575080 10.077098 -47.221789 -22.103922 6.527174 4.916600 -5.864756 -0.969192 -3.806775 2.822604 0.426430 0.049060 -0.011910 0.188080 -23.289512 34.006561 1.987676 -24.645182 24.437463 -11.021511 -130.186772 34.357455 -75.086569 2.224090 -1.380572 -0.211840 0.551600 0.349670 0.182030 
-1.093460 17.946870 -1.959280 -8.996570 -12.663649 1.274757 -14.857890 11.191754 3.619637 19.227593 -0.948365 -33.320218 -8.551766 13.116440 37.245141 -0.102128 8.130896 1.475355 -0.033510 0.025940 -0.404130 18.902012 -9.628345 4.251994 -12.451684 13.569915 -36.987166 12.471639 -15.539863 54.486487 -1.260302 -9.131578 1.193471 0.040860 0.568870 0.061120 -5.049505 0.490959 -8.662318 23.062827 -8.401063 28.045203 -27.563475 1.976967 11.751898 12.855928 -11.513839 -14.702279 -24.930462 10.132865 36.497314 6.133370 -4.273510 -16.822160 -1.661026 -23.864859 10.296641 -44.689947 -18.377043 5.427863 5.544405 -4.882529 -0.907226 -3.865012 2.729430 0.447240 0.062930 -0.057500 0.143620 -23.476732 33.222882 1.276088 -24.509147 23.763155 -11.668366 -129.607825 34.684118 -75.568158 2.204920 -1.359666 -0.269060 0.599650 0.419700 0.159630 
-1.077720 18.004150 -1.945890 -10.646925 -13.558689 0.891688 -14.756860 11.221220 2.891600 16.645303 -0.194357 -32.809949 -1.834659 10.774043 39.053573 -0.239260 7.532112 1.693494 -0.049060 -0.014290 -0.399860 19.030399 -9.553335 4.863896 -13.566160 16.667779 -38.527429 18.819474 -20.160125 58.312050 -1.702984 -10.693903 0.748959 0.038020 0.569220 0.036250 -5.412661 1.001871 -8.588554 25.799233 -9.213529 29.139934 -30.134818 2.088701 11.652565 13.060962 -12.698136 -15.209298 -28.169671 11.500155 35.348338 5.513050 -4.424130 -17.021710 -2.045612 -22.845277 10.938795 -42.201297 -14.547243 4.647759 6.058062 -3.111754 -0.718218 -3.869884 2.672132 0.479630 0.043880 -0.068100 0.127590 -23.341107 32.961113 0.513198 -24.839994 23.181472 -12.402795 -128.580516 36.063738 -76.680407 2.209156 -1.343265 -0.306240 0.633410 0.442530 0.143120 
-1.058340 18.056100 -1.937760 -11.853580 -13.432380 0.079094 -14.677405 11.280740 2.253775 13.677427 0.205599 -31.935289 4.349996 8.137797 39.633444 -0.343932 6.903206 1.920794 -0.066220 -0.057000 -0.401860 19.122804 -9.469359 5.409441 -15.799680 19.104517 -39.670637 27.952485 -26.325736 59.734275 -2.185718 -12.245984 0.336970 0.028760 0.550030 0.016560 -5.671584 1.334271 -8.540996 27.723050 -10.152060 30.557314 -31.853335 1.948115 11.668158 13.056396 -13.162948 -15.886284 -30.215125 12.734017 35.086248 5.446160 -4.479430 -16.746770 -2.513885 -22.762201 11.875444 -39.054649 -11.000752 4.316473 4.767788 -0.447757 -0.443905 -3.862696 2.634510 0.516550 0.017690 -0.073890 0.106310 -22.674722 33.105267 0.166630 -25.091572 22.342388 -13.167714 -127.449514 37.064226 -76.920393 2.208438 -1.330784 -0.334860 0.635350 0.464320 0.120760 
-1.045890 18.094510 -1.927790 -12.616159 -12.723229 -1.271177 -14.631341 11.408735 1.774124 10.859215 0.473873 -30.568609 9.884904 5.636194 39.383261 -0.388399 6.424067 2.104239 -0.108790 -0.118750 -0.407250 19.159010 -9.391453 5.829003 -18.237213 20.515779 -40.195441 38.436754 -32.472595 58.355216 -2.560800 -13.270105 0.096086 -0.005250 0.525090 0.001830 -5.769944 1.419043 -8.514531 28.441028 -10.996566 32.639925 -32.684837 1.597008 11.599005 13.300273 -13.245123 -16.573346 -31.167916 13.399553 35.175797 4.475460 -4.302800 -16.658240 -3.077329 -22.775293 12.698780 -36.320535 -7.686743 3.718756 4.074554 1.585888 -0.331972 -3.856092 2.591280 0.548680 -0.003450 -0.070880 0.072610 -22.401263 33.302114 0.034562 -25.380990 20.993129 -13.705052 -127.910226 37.534850 -79.147031 2.208978 -1.355667 -0.356070 0.629640 0.492140 0.098920 
-1.044330 18.110740 -1.904060 -13.149252 -12.715392 -1.900485 -14.599586 11.466685 1.435590 9.055682 1.024878 -29.305290 13.602730 4.112626 38.432688 -0.358393 6.100774 2.235717 -0.109400 -0.122570 -0.392630 19.190254 -9.320900 6.160752 -20.358816 21.621476 -41.163102 49.312603 -37.391709 55.052741 -2.797550 -13.658796 0.041617 -0.027760 0.482870 -0.008680 -5.856401 1.551248 -8.522238 29.121962 -11.018373 33.872659 -33.282770 1.850776 11.316468 13.467755 -13.193964 -17.099488 -31.432715 13.727912 35.672787 3.721420 -4.018250 -16.409530 -3.393487 -22.309865 13.187424 -34.157868 -4.841974 3.104524 3.354608 2.962761 -0.287978 -3.824229 2.585112 0.556250 -0.031660 -0.050070 0.070890 -22.310838 33.258877 -0.076312 -24.737105 20.473716 -13.936127 -128.030058 37.496429 -79.967711 2.238282 -1.376453 -0.339920 0.605280 0.470680 0.093420 
-1.052910 18.109000 -1.880680 -12.880498 -12.649694 -2.709709 -14.583445 11.534647 1.239166 7.854483 1.434064 -28.079554 15.300226 3.482645 37.685838 -0.312809 5.926778 2.328181 -0.105730 -0.121580 -0.376490 19.194314 -9.305165 6.350260 -22.519241 21.658704 -41.444189 59.339269 -40.572830 50.540286 -2.879027 -13.540312 0.101243 -0.045960 0.460290 -0.012730 -5.870558 1.607815 -8.530324 28.611631 -10.668537 35.123005 -33.406455 2.081640 11.365380 13.647836 -13.188743 -17.436452 -31.019589 13.364195 35.501609 2.857050 -3.851100 -16.183050 -3.248319 -21.595725 13.485957 -32.402852 -2.222704 2.387061 3.164685 3.231848 -0.292147 -3.793201 2.591937 0.551870 -0.048370 -0.034680 0.083830 -22.690007 33.112075 -0.111691 -23.963042 19.590228 -14.322868 -127.899185 37.195131 -80.321562 2.274778 -1.416960 -0.324880 0.589200 0.441240 0.096250 
